<svg width="33" height="33" viewBox="0 0 33 33" fill="none" xmlns="http://www.w3.org/2000/svg">
<g clip-path="url(#clip0_22_351)">
<path d="M2.75549 30.25L4.61449 23.419C3.38955 21.3192 2.74599 18.931 2.74999 16.5C2.74999 8.90588 8.90586 2.75 16.5 2.75C24.0941 2.75 30.25 8.90588 30.25 16.5C30.25 24.0941 24.0941 30.25 16.5 30.25C14.0701 30.2539 11.6829 29.6109 9.58374 28.3869L2.75549 30.25ZM11.5376 10.0485C11.36 10.0595 11.1865 10.1063 11.0275 10.186C10.8783 10.2705 10.7422 10.3761 10.6232 10.4995C10.4582 10.6549 10.3647 10.7896 10.2644 10.9202C9.75618 11.5816 9.48283 12.3934 9.48749 13.2275C9.49024 13.9012 9.66624 14.5571 9.94124 15.1704C10.5036 16.4106 11.429 17.7237 12.6514 18.9406C12.9456 19.2335 13.233 19.5278 13.5424 19.8014C15.0595 21.1371 16.8675 22.1004 18.8224 22.6146L19.6047 22.7343C19.8591 22.748 20.1135 22.7288 20.3692 22.7164C20.7697 22.6957 21.1607 22.5873 21.5146 22.3988C21.7429 22.2778 21.8501 22.2172 22.0412 22.0962C22.0412 22.0962 22.1004 22.0577 22.2131 21.9725C22.3987 21.835 22.5129 21.7374 22.6669 21.5765C22.781 21.4583 22.88 21.3194 22.9556 21.1613C23.0629 20.9371 23.1701 20.5095 23.2141 20.1534C23.2471 19.8811 23.2375 19.7326 23.2334 19.6405C23.2279 19.4934 23.1055 19.3407 22.9721 19.2761L22.1719 18.9172C22.1719 18.9172 20.9756 18.3961 20.2455 18.0634C20.1685 18.0298 20.086 18.0107 20.0021 18.007C19.908 17.9973 19.813 18.0079 19.7233 18.038C19.6337 18.0682 19.5515 18.1171 19.4824 18.1816V18.1789C19.4755 18.1789 19.3834 18.2573 18.3892 19.4618C18.3322 19.5384 18.2536 19.5964 18.1635 19.6282C18.0734 19.66 17.9758 19.6643 17.8832 19.6405C17.7936 19.6165 17.7059 19.5862 17.6206 19.5498C17.4501 19.4783 17.391 19.4508 17.2741 19.3999L17.2672 19.3971C16.4806 19.0537 15.7523 18.5898 15.1085 18.0221C14.9352 17.8709 14.7744 17.7059 14.6094 17.5464C14.0684 17.0283 13.597 16.4423 13.2069 15.8029L13.1257 15.6722C13.0675 15.5845 13.0204 15.4898 12.9855 15.3904C12.9332 15.1882 13.0694 15.026 13.0694 15.026C13.0694 15.026 13.4035 14.6602 13.5589 14.4622C13.6882 14.2977 13.8089 14.1265 13.9205 13.9494C14.0827 13.6881 14.1336 13.42 14.0484 13.2124C13.6634 12.2719 13.2646 11.3355 12.8549 10.406C12.7737 10.2217 12.5331 10.0897 12.3145 10.0636C12.2402 10.0554 12.166 10.0471 12.0917 10.0416C11.9071 10.0325 11.722 10.0357 11.5376 10.0485Z" fill="white"/>
</g>
<defs>
<clipPath id="clip0_22_351">
<rect width="33" height="33" fill="white"/>
</clipPath>
</defs>
</svg>
