<svg width="33" height="33" viewBox="0 0 33 33" fill="none" xmlns="http://www.w3.org/2000/svg">
<g clip-path="url(#clip0_22_355)">
<path fill-rule="evenodd" clip-rule="evenodd" d="M28.9682 0C31.1934 0 33 1.80662 33 4.0318V28.9682C33 31.1934 31.1934 33 28.9682 33H4.0318C1.80662 33 0 31.1934 0 28.9682V4.0318C0 1.80662 1.80656 0 4.0318 0L28.9682 0ZM10.3422 27.2816V12.7334H5.50565V27.2816H10.3422ZM27.7793 27.2816V18.9388C27.7793 14.4701 25.3934 12.3913 22.2118 12.3913C19.6463 12.3913 18.4971 13.8022 17.8536 14.7932V12.7334H13.0183C13.0824 14.0986 13.0183 27.2816 13.0183 27.2816H17.8536V19.1569C17.8536 18.722 17.8849 18.2873 18.013 17.9764C18.362 17.1079 19.1582 16.2082 20.4941 16.2082C22.243 16.2082 22.9438 17.5429 22.9438 19.4977V27.2816H27.7793ZM7.95661 5.71841C6.30184 5.71841 5.2207 6.80631 5.2207 8.23221C5.2207 9.62814 6.26897 10.746 7.89261 10.746H7.9238C9.61022 10.746 10.66 9.62814 10.66 8.23221C10.6287 6.80831 9.61318 5.7215 7.95661 5.71841Z" fill="white"/>
</g>
<defs>
<clipPath id="clip0_22_355">
<rect width="33" height="33" fill="white"/>
</clipPath>
</defs>
</svg>
