<svg width="33" height="33" viewBox="0 0 33 33" fill="none" xmlns="http://www.w3.org/2000/svg">
<g clip-path="url(#clip0_22_357)">
<path d="M16.5 20.625C18.7782 20.625 20.625 18.7782 20.625 16.5C20.625 14.2218 18.7782 12.375 16.5 12.375C14.2218 12.375 12.375 14.2218 12.375 16.5C12.375 18.7782 14.2218 20.625 16.5 20.625Z" fill="white"/>
<path d="M22.1719 3.60938H10.8281C8.91359 3.60938 7.07748 4.36992 5.7237 5.7237C4.36992 7.07748 3.60938 8.91359 3.60938 10.8281V22.1719C3.60938 24.0864 4.36992 25.9225 5.7237 27.2763C7.07748 28.6301 8.91359 29.3906 10.8281 29.3906H22.1719C24.0864 29.3906 25.9225 28.6301 27.2763 27.2763C28.6301 25.9225 29.3906 24.0864 29.3906 22.1719V10.8281C29.3906 8.91359 28.6301 7.07748 27.2763 5.7237C25.9225 4.36992 24.0864 3.60938 22.1719 3.60938ZM16.5 22.6875C15.2762 22.6875 14.0799 22.3246 13.0624 21.6447C12.0449 20.9648 11.2518 19.9985 10.7835 18.8679C10.3152 17.7372 10.1926 16.4931 10.4314 15.2929C10.6701 14.0926 11.2594 12.9901 12.1248 12.1248C12.9901 11.2594 14.0926 10.6701 15.2929 10.4314C16.4931 10.1926 17.7372 10.3152 18.8679 10.7835C19.9985 11.2518 20.9648 12.0449 21.6447 13.0624C22.3246 14.0799 22.6875 15.2762 22.6875 16.5C22.6875 18.141 22.0356 19.7148 20.8752 20.8752C19.7148 22.0356 18.141 22.6875 16.5 22.6875ZM23.2031 11.3438C22.8972 11.3438 22.5981 11.253 22.3437 11.0831C22.0893 10.9131 21.8911 10.6715 21.774 10.3888C21.6569 10.1062 21.6263 9.79516 21.686 9.49509C21.7457 9.19503 21.893 8.9194 22.1093 8.70307C22.3257 8.48673 22.6013 8.33941 22.9013 8.27972C23.2014 8.22004 23.5124 8.25067 23.7951 8.36775C24.0777 8.48483 24.3193 8.6831 24.4893 8.93748C24.6593 9.19186 24.75 9.49093 24.75 9.79688C24.75 10.2071 24.587 10.6006 24.2969 10.8907C24.0068 11.1808 23.6134 11.3438 23.2031 11.3438Z" fill="white"/>
</g>
<defs>
<clipPath id="clip0_22_357">
<rect width="33" height="33" fill="white"/>
</clipPath>
</defs>
</svg>
