<svg width="33" height="33" viewBox="0 0 33 33" fill="none" xmlns="http://www.w3.org/2000/svg">
<g clip-path="url(#clip0_7_1284)">
<path d="M33 16.6001C33 7.48739 25.6127 0.100098 16.5 0.100098C7.3873 0.100098 0 7.48739 0 16.6001C0 24.8357 6.03384 31.6618 13.9219 32.8996V21.3696H9.73242V16.6001H13.9219V12.9649C13.9219 8.82963 16.3852 6.54541 20.1542 6.54541C21.9594 6.54541 23.8477 6.86767 23.8477 6.86767V10.9282H21.767C19.7174 10.9282 19.0781 12.2001 19.0781 13.5049V16.6001H23.6543L22.9228 21.3696H19.0781V32.8996C26.9662 31.6618 33 24.8357 33 16.6001Z" fill="white"/>
</g>
<defs>
<clipPath id="clip0_7_1284">
<rect width="33" height="33" fill="white"/>
</clipPath>
</defs>
</svg>
