<svg width="33" height="33" viewBox="0 0 33 33" fill="none" xmlns="http://www.w3.org/2000/svg">
<path d="M30.7555 8.76923C29.7013 9.23781 28.5669 9.55388 27.3765 9.69532C28.5919 8.96772 29.5238 7.8152 29.9633 6.44032C28.8265 7.11495 27.568 7.60448 26.2275 7.86875C25.1547 6.72554 23.6256 6.01074 21.9334 6.01074C18.6848 6.01074 16.0509 8.64467 16.0509 11.8938C16.0509 12.3543 16.1027 12.8031 16.2034 13.2344C11.3139 12.9887 6.97858 10.647 4.0769 7.08759C3.57048 7.95606 3.28061 8.96656 3.28061 10.0457C3.28061 12.0865 4.31904 13.8875 5.89765 14.9422C4.93372 14.9114 4.02625 14.6465 3.23288 14.2059C3.23229 14.2303 3.23229 14.2554 3.23229 14.2804C3.23229 17.1303 5.26027 19.5075 7.95182 20.0488C7.45821 20.1827 6.93841 20.2549 6.40173 20.2549C6.02222 20.2549 5.65376 20.2182 5.29461 20.1489C6.04375 22.486 8.21608 24.1874 10.7901 24.2346C8.77663 25.8126 6.2405 26.7533 3.48375 26.7533C3.00936 26.7533 2.54078 26.7253 2.08035 26.6706C4.68459 28.3406 7.77661 29.3138 11.0986 29.3138C21.9201 29.3138 27.8369 20.3498 27.8369 12.5755C27.8369 12.3205 27.8317 12.0661 27.8206 11.8135C28.9697 10.9858 29.9673 9.94911 30.7555 8.76923Z" fill="white"/>
</svg>
