<svg width="40" height="40" viewBox="0 0 40 40" fill="none" xmlns="http://www.w3.org/2000/svg">
<g clip-path="url(#clip0_7_1347)">
<path d="M20 0C8.95312 0 0 8.95312 0 20C0 31.0469 8.95312 40 20 40C31.0469 40 40 31.0469 40 20C40 8.95312 31.0469 0 20 0ZM24.2656 26.9844C25.2422 27.9609 25.2422 29.543 24.2656 30.5195C23.2891 31.4961 21.707 31.4961 20.7305 30.5195L11.9805 21.7695C11.4922 21.2812 11.25 20.6406 11.25 20C11.25 19.3594 11.4941 18.7203 11.9824 18.2328L20.7324 9.48281C21.709 8.50625 23.291 8.50625 24.2676 9.48281C25.2441 10.4594 25.2441 12.0414 24.2676 13.018L17.2891 20L24.2656 26.9844Z" fill="#0A9E88"/>
</g>
<defs>
<clipPath id="clip0_7_1347">
<rect width="40" height="40" fill="white"/>
</clipPath>
</defs>
</svg>
