<svg width="40" height="40" viewBox="0 0 40 40" fill="none" xmlns="http://www.w3.org/2000/svg">
<g clip-path="url(#clip0_7_1351)">
<path d="M20 40C31.0469 40 40 31.0469 40 20C40 8.95312 31.0469 -7.82707e-07 20 -1.74846e-06C8.95313 -2.7142e-06 2.7142e-06 8.95312 1.74846e-06 20C7.82707e-07 31.0469 8.95312 40 20 40ZM15.7344 13.0156C14.7578 12.0391 14.7578 10.457 15.7344 9.48047C16.7109 8.5039 18.293 8.5039 19.2695 9.48047L28.0195 18.2305C28.5078 18.7187 28.75 19.3594 28.75 20C28.75 20.6406 28.5059 21.2797 28.0176 21.7672L19.2676 30.5172C18.291 31.4937 16.709 31.4937 15.7324 30.5172C14.7559 29.5406 14.7559 27.9586 15.7324 26.982L22.7109 20L15.7344 13.0156Z" fill="#0A9E88"/>
</g>
<defs>
<clipPath id="clip0_7_1351">
<rect width="40" height="40" fill="white" transform="translate(40 40) rotate(-180)"/>
</clipPath>
</defs>
</svg>
