<svg width="42" height="42" viewBox="0 0 42 42" fill="none" xmlns="http://www.w3.org/2000/svg">
<path d="M18.1388 31.9454C16.2669 31.9487 14.4129 31.582 12.6832 30.8666C10.9535 30.1512 9.38222 29.1011 8.05957 27.7766C2.50195 22.219 2.50195 13.175 8.05957 7.61824C13.6172 2.06145 22.6611 2.06063 28.2179 7.61824C30.2123 9.6109 31.5707 12.1504 32.1212 14.9154C32.6716 17.6804 32.3895 20.5465 31.3103 23.1511C30.2312 25.7556 28.4037 27.9815 26.059 29.547C23.7144 31.1124 20.958 31.9471 18.1388 31.9454ZM18.1388 5.90953C16.5904 5.90657 15.0566 6.2094 13.6256 6.80064C12.1945 7.39187 10.8942 8.25988 9.79945 9.35484C5.2057 13.9535 5.2057 21.4348 9.79945 26.0334C10.8885 27.1548 12.1896 28.0485 13.6271 28.6626C15.0647 29.2767 16.6099 29.5988 18.1731 29.6103C19.7362 29.6218 21.2861 29.3225 22.7325 28.7297C24.1789 28.1369 25.493 27.2624 26.5985 26.1572C27.704 25.052 28.5787 23.738 29.1717 22.2917C29.7648 20.8454 30.0645 19.2956 30.0533 17.7325C30.0421 16.1693 29.7202 14.624 29.1065 13.1863C28.4927 11.7487 27.5992 10.4474 26.478 9.35813C25.3838 8.2619 24.0839 7.39264 22.6528 6.80026C21.2216 6.20788 19.6876 5.90406 18.1388 5.90625V5.90953Z" fill="white"/>
<path d="M18.1388 27.2475C15.9294 27.246 13.7889 26.4786 12.0819 25.0759C10.3749 23.6732 9.20707 21.722 8.77737 19.5548C8.34768 17.3876 8.68269 15.1385 9.72534 13.1906C10.768 11.2427 12.4538 9.71657 14.4954 8.87223C16.5371 8.0279 18.8084 7.91758 20.9223 8.56007C23.0362 9.20257 24.8619 10.5581 26.0884 12.3958C27.315 14.2335 27.8664 16.4395 27.6487 18.6382C27.4311 20.8368 26.4579 22.892 24.8949 24.4535C24.0083 25.3413 22.955 26.0451 21.7956 26.5246C20.6362 27.0041 19.3934 27.2498 18.1388 27.2475ZM18.1388 10.6066C16.4983 10.6077 14.909 11.1775 13.6416 12.219C12.3741 13.2604 11.507 14.7091 11.1879 16.3182C10.8689 17.9273 11.1176 19.5973 11.8917 21.0436C12.6658 22.4898 13.9175 23.623 15.4334 24.2499C16.9493 24.8769 18.6356 24.9588 20.2052 24.4818C21.7747 24.0048 23.1303 22.9983 24.041 21.6339C24.9517 20.2695 25.3612 18.6315 25.1996 16.999C25.038 15.3666 24.3155 13.8406 23.155 12.6812C22.4967 12.0221 21.7146 11.4995 20.8538 11.1435C19.993 10.7875 19.0703 10.6051 18.1388 10.6066Z" fill="white"/>
<path d="M34.0282 36.9502C33.5863 36.9513 33.1486 36.8649 32.7403 36.696C32.3319 36.527 31.9612 36.2789 31.6493 35.9658L24.8464 29.1621C24.6156 28.9313 24.4859 28.6182 24.4859 28.2918C24.4859 27.9653 24.6156 27.6522 24.8464 27.4214C25.0773 27.1906 25.3903 27.0609 25.7168 27.0609C26.0432 27.0609 26.3563 27.1906 26.5871 27.4214L33.3867 34.2243C33.4696 34.312 33.5692 34.3822 33.6796 34.4308C33.7901 34.4793 33.9092 34.5052 34.0298 34.5069C34.1505 34.5087 34.2703 34.4862 34.3821 34.4408C34.4939 34.3954 34.5955 34.3281 34.6808 34.2427C34.7661 34.1574 34.8335 34.0559 34.8788 33.944C34.9242 33.8322 34.9467 33.7125 34.945 33.5918C34.9433 33.4711 34.9174 33.3521 34.8688 33.2416C34.8202 33.1311 34.75 33.0315 34.6623 32.9487L27.8594 26.1458C27.7452 26.0315 27.6545 25.8958 27.5926 25.7465C27.5308 25.5972 27.4989 25.4371 27.4989 25.2755C27.4989 25.1138 27.5308 24.9538 27.5926 24.8044C27.6545 24.6551 27.7452 24.5194 27.8594 24.4051C27.9737 24.2908 28.1094 24.2002 28.2588 24.1383C28.4081 24.0764 28.5682 24.0446 28.7298 24.0446C28.8914 24.0446 29.0515 24.0764 29.2008 24.1383C29.3502 24.2002 29.4859 24.2908 29.6002 24.4051L36.403 31.208C36.8737 31.6783 37.1942 32.2777 37.3241 32.9303C37.454 33.5829 37.3874 34.2594 37.1327 34.8741C36.878 35.4889 36.4467 36.0142 35.8934 36.3838C35.34 36.7533 34.6895 36.9504 34.0241 36.9502H34.0282Z" fill="white"/>
</svg>
