<svg width="25" height="24" viewBox="0 0 25 24" fill="none" xmlns="http://www.w3.org/2000/svg">
<path d="M13.4 2.59994L15.7 7.59994C15.8 7.89994 16.1 8.09994 16.4 8.19994L21.6 8.99994C22.5 8.99994 22.8 9.99994 22.2 10.5999L18.4 14.4999C18.2 14.6999 18.1 15.0999 18.1 15.3999L19 20.7999C19.1 21.5999 18.3 22.2999 17.6 21.8999L12.9 19.2999C12.6 19.0999 12.3 19.0999 12 19.2999L7.30001 21.8999C6.60001 22.2999 5.70001 21.6999 5.90001 20.7999L6.80001 15.3999C6.90001 15.0999 6.70001 14.6999 6.50001 14.4999L2.70001 10.5999C2.20001 9.99994 2.50001 8.99994 3.30001 8.89994L8.50001 8.09994C8.80001 8.09994 9.10001 7.79994 9.20001 7.49994L11.5 2.49994C12 1.79994 13 1.79994 13.4 2.59994Z" fill="#0A9E88"/>
</svg>
